<?xml version="1.0" encoding="UTF-8"?>
<!DOCTYPE svg PUBLIC "-//W3C//DTD SVG 1.1//EN" "http://www.w3.org/Graphics/SVG/1.1/DTD/svg11.dtd">
<!-- Creator: CorelDRAW X6 -->
<svg xmlns="http://www.w3.org/2000/svg" xml:space="preserve" width="10mm" height="10mm" version="1.1" style="shape-rendering:geometricPrecision; text-rendering:geometricPrecision; image-rendering:optimizeQuality; fill-rule:evenodd; clip-rule:evenodd"
viewBox="0 0 1000 1000"
 xmlns:xlink="http://www.w3.org/1999/xlink">
 <defs>
  <style type="text/css">
   <![CDATA[
    .fil0 {fill:white;fill-rule:nonzero}
   ]]>
  </style>
 </defs>
 <g id="Слой_x0020_1">
  <metadata id="CorelCorpID_0Corel-Layer"/>
  <path class="fil0" d="M90 634l111 -288 42 0 118 288 -44 0 -33 -87 -122 0 -31 87 -41 0zm83 -118l99 0 -30 -80c-10,-25 -16,-45 -21,-61 -4,19 -9,38 -16,56l-32 85zm219 118l0 -288 109 0c22,0 39,2 53,8 13,6 23,15 31,27 8,12 11,25 11,38 0,13 -3,24 -10,35 -6,11 -16,20 -30,27 18,5 31,14 40,26 10,12 14,27 14,44 0,13 -2,26 -8,37 -6,12 -13,21 -21,27 -9,7 -19,11 -32,15 -13,3 -28,4 -47,4l-110 0zm39 -167l62 0c17,0 29,-1 36,-3 10,-3 17,-8 22,-15 5,-7 8,-15 8,-25 0,-10 -2,-18 -7,-25 -5,-8 -11,-13 -20,-15 -8,-3 -23,-5 -44,-5l-57 0 0 88zm0 134l71 0c13,0 21,-1 27,-2 8,-1 16,-4 22,-8 6,-3 10,-9 14,-16 4,-7 6,-15 6,-24 0,-11 -3,-20 -8,-28 -6,-8 -14,-14 -23,-17 -10,-3 -24,-5 -43,-5l-66 0 0 100zm441 -68l38 10c-8,31 -23,55 -43,72 -21,16 -46,24 -77,24 -31,0 -56,-6 -75,-19 -20,-12 -35,-31 -45,-55 -10,-24 -15,-50 -15,-77 0,-30 6,-56 17,-79 12,-22 28,-39 49,-51 21,-11 45,-17 70,-17 29,0 53,7 73,22 20,15 33,35 41,62l-37 9c-7,-21 -17,-37 -30,-46 -12,-10 -28,-15 -48,-15 -22,0 -40,6 -55,16 -15,11 -25,25 -31,43 -7,18 -10,37 -10,56 0,24 4,46 11,64 7,18 18,32 33,41 16,9 32,14 49,14 22,0 40,-7 55,-19 14,-12 24,-31 30,-55z"/>
  <path class="fil0" d="M500 5c137,0 260,56 350,145 89,90 145,213 145,350 0,137 -56,260 -145,350 -90,89 -213,145 -350,145 -137,0 -260,-56 -350,-145 -89,-90 -145,-213 -145,-350 0,-137 56,-260 145,-350 90,-89 213,-145 350,-145zm329 166c-85,-84 -201,-136 -329,-136 -128,0 -244,52 -329,136 -84,85 -136,201 -136,329 0,128 52,244 136,329 85,84 201,136 329,136 128,0 244,-52 329,-136 84,-85 136,-201 136,-329 0,-128 -52,-244 -136,-329z"/>
 </g>
</svg>
