<?xml version="1.0" encoding="UTF-8"?>
<!DOCTYPE svg PUBLIC "-//W3C//DTD SVG 1.1//EN" "http://www.w3.org/Graphics/SVG/1.1/DTD/svg11.dtd">
<!-- Creator: CorelDRAW X6 -->
<svg xmlns="http://www.w3.org/2000/svg" xml:space="preserve" width="10mm" height="10mm" version="1.1" style="shape-rendering:geometricPrecision; text-rendering:geometricPrecision; image-rendering:optimizeQuality; fill-rule:evenodd; clip-rule:evenodd"
viewBox="0 0 1000 1000"
 xmlns:xlink="http://www.w3.org/1999/xlink">
 <defs>
  <style type="text/css">
   <![CDATA[
    .fil0 {fill:white}
   ]]>
  </style>
 </defs>
 <g id="Слой_x0020_1">
  <metadata id="CorelCorpID_0Corel-Layer"/>
  <path class="fil0" d="M0 0l1000 0 0 1000 -1000 0 0 -1000zm464 485c0,-51 96,-63 96,-167 0,-51 -22,-87 -60,-119l53 0 56 -36 -170 0c-56,0 -118,15 -161,53 -34,29 -55,73 -55,117 0,81 63,138 142,138 9,0 18,-1 27,-1 -5,11 -8,21 -8,34 0,24 11,41 25,60 -54,3 -116,10 -163,40 -38,23 -66,61 -66,107 0,19 5,37 15,53 34,57 108,73 169,73 77,0 164,-26 206,-96 12,-21 19,-46 19,-70 0,-114 -125,-132 -125,-186zm-59 -38c-73,0 -107,-96 -107,-156 0,-23 5,-47 19,-65 14,-18 37,-29 60,-29 73,0 108,101 108,161 0,24 -5,47 -22,64 -14,15 -38,25 -58,25zm1 353c-65,0 -151,-29 -151,-107 0,-84 98,-105 164,-105 6,0 13,0 19,1 39,28 94,61 94,116 0,70 -66,95 -126,95zm328 -355l0 -87 -43 0 0 87 -86 0 0 44 86 0 0 89 43 0 0 -89 86 0 0 -44 -86 0z"/>
 </g>
</svg>
