<?xml version="1.0" encoding="UTF-8"?>
<!DOCTYPE svg PUBLIC "-//W3C//DTD SVG 1.1//EN" "http://www.w3.org/Graphics/SVG/1.1/DTD/svg11.dtd">
<!-- Creator: CorelDRAW X6 -->
<svg xmlns="http://www.w3.org/2000/svg" xml:space="preserve" width="10mm" height="10mm" version="1.1" style="shape-rendering:geometricPrecision; text-rendering:geometricPrecision; image-rendering:optimizeQuality; fill-rule:evenodd; clip-rule:evenodd"
viewBox="0 0 1000 1000"
 xmlns:xlink="http://www.w3.org/1999/xlink">
 <defs>
  <style type="text/css">
   <![CDATA[
    .fil0 {fill:white}
   ]]>
  </style>
 </defs>
 <g id="Слой_x0020_1">
  <metadata id="CorelCorpID_0Corel-Layer"/>
  <path class="fil0" d="M0 0l1000 0 0 1000 -1000 0 0 -1000zm848 285c-25,11 -53,19 -82,22 30,-18 52,-46 63,-79 -27,17 -58,28 -91,35 -26,-28 -63,-45 -104,-45 -79,0 -143,64 -143,142 0,11 1,22 4,33 -119,-6 -225,-63 -295,-149 -12,21 -19,45 -19,72 0,49 25,93 63,118 -23,-1 -45,-7 -64,-18 0,1 0,1 0,2 0,69 49,127 114,140 -11,3 -24,5 -37,5 -10,0 -18,-1 -27,-3 18,57 71,98 133,99 -49,39 -110,61 -177,61 -12,0 -23,0 -34,-1 63,40 138,63 219,63 262,0 406,-217 406,-405 0,-6 0,-12 0,-19 28,-20 52,-45 71,-73z"/>
 </g>
</svg>
